<mxfile host="Electron" agent="Mozilla/5.0 (Windows NT 10.0; Win64; x64) AppleWebKit/537.36 (KHTML, like Gecko) draw.io/27.0.9 Chrome/134.0.6998.205 Electron/35.4.0 Safari/537.36" version="27.0.9">
  <diagram name="Page-1" id="yd6V0qJQLd2Nsdcf1jzj">
    <mxGraphModel dx="1042" dy="722" grid="1" gridSize="10" guides="1" tooltips="1" connect="1" arrows="1" fold="1" page="1" pageScale="1" pageWidth="1200" pageHeight="1920" math="0" shadow="0">
      <root>
        <mxCell id="0" />
        <mxCell id="1" parent="0" />
        <mxCell id="Fx9q14CJgmkUAAxT83G9-1" value="" style="rounded=0;whiteSpace=wrap;html=1;fillColor=none;dashed=1;dashPattern=1 2;" vertex="1" parent="1">
          <mxGeometry x="77.5" y="160" width="120" height="340" as="geometry" />
        </mxCell>
        <mxCell id="Fx9q14CJgmkUAAxT83G9-3" value="SOURCES" style="rounded=1;whiteSpace=wrap;html=1;strokeColor=none;fontSize=16;fontStyle=1" vertex="1" parent="1">
          <mxGeometry x="90" y="150" width="95" height="20" as="geometry" />
        </mxCell>
        <mxCell id="Fx9q14CJgmkUAAxT83G9-5" value="" style="image;aspect=fixed;html=1;points=[];align=center;fontSize=12;image=img/lib/azure2/general/Folder_Blank.svg;" vertex="1" parent="1">
          <mxGeometry x="106" y="230" width="49.29" height="40" as="geometry" />
        </mxCell>
        <mxCell id="Fx9q14CJgmkUAAxT83G9-6" value="" style="image;aspect=fixed;html=1;points=[];align=center;fontSize=12;image=img/lib/azure2/general/Folder_Blank.svg;" vertex="1" parent="1">
          <mxGeometry x="105.99" y="410" width="49.29" height="40" as="geometry" />
        </mxCell>
        <mxCell id="Fx9q14CJgmkUAAxT83G9-7" value="&lt;b&gt;&lt;font style=&quot;font-size: 14px;&quot;&gt;CRM&lt;/font&gt;&lt;/b&gt;" style="text;html=1;align=center;verticalAlign=middle;whiteSpace=wrap;rounded=0;" vertex="1" parent="1">
          <mxGeometry x="100.64" y="260" width="60" height="40" as="geometry" />
        </mxCell>
        <mxCell id="Fx9q14CJgmkUAAxT83G9-8" value="&lt;b&gt;&lt;font style=&quot;font-size: 14px;&quot;&gt;ERP&lt;/font&gt;&lt;/b&gt;" style="text;html=1;align=center;verticalAlign=middle;whiteSpace=wrap;rounded=0;" vertex="1" parent="1">
          <mxGeometry x="100.63999999999997" y="440" width="60" height="40" as="geometry" />
        </mxCell>
        <mxCell id="Fx9q14CJgmkUAAxT83G9-9" value="" style="rounded=1;whiteSpace=wrap;html=1;fillColor=none;strokeColor=#FF9032;" vertex="1" parent="1">
          <mxGeometry x="300" y="160" width="180" height="370" as="geometry" />
        </mxCell>
        <mxCell id="Fx9q14CJgmkUAAxT83G9-10" value="crm_sales_details" style="rounded=1;whiteSpace=wrap;html=1;fillColor=#ffe6cc;strokeColor=#d79b00;" vertex="1" parent="1">
          <mxGeometry x="330" y="180" width="120" height="40" as="geometry" />
        </mxCell>
        <mxCell id="Fx9q14CJgmkUAAxT83G9-11" value="crm_cust_info" style="rounded=1;whiteSpace=wrap;html=1;fillColor=#ffe6cc;strokeColor=#d79b00;" vertex="1" parent="1">
          <mxGeometry x="330" y="230" width="120" height="40" as="geometry" />
        </mxCell>
        <mxCell id="Fx9q14CJgmkUAAxT83G9-12" value="crm_prod_info" style="rounded=1;whiteSpace=wrap;html=1;fillColor=#ffe6cc;strokeColor=#d79b00;" vertex="1" parent="1">
          <mxGeometry x="330" y="280" width="120" height="40" as="geometry" />
        </mxCell>
        <mxCell id="Fx9q14CJgmkUAAxT83G9-13" value="erp_cust_az12" style="rounded=1;whiteSpace=wrap;html=1;fillColor=#ffe6cc;strokeColor=#d79b00;" vertex="1" parent="1">
          <mxGeometry x="330" y="360" width="120" height="40" as="geometry" />
        </mxCell>
        <mxCell id="Fx9q14CJgmkUAAxT83G9-14" value="erp_loc_a101" style="rounded=1;whiteSpace=wrap;html=1;fillColor=#ffe6cc;strokeColor=#d79b00;" vertex="1" parent="1">
          <mxGeometry x="330" y="410" width="120" height="40" as="geometry" />
        </mxCell>
        <mxCell id="Fx9q14CJgmkUAAxT83G9-15" value="erp_px_cat_g1v2" style="rounded=1;whiteSpace=wrap;html=1;fillColor=#ffe6cc;strokeColor=#d79b00;" vertex="1" parent="1">
          <mxGeometry x="330" y="460" width="120" height="40" as="geometry" />
        </mxCell>
        <mxCell id="Fx9q14CJgmkUAAxT83G9-16" value="BRONZE LAYER" style="rounded=1;whiteSpace=wrap;html=1;fillColor=#ffe6cc;strokeColor=#d79b00;fontStyle=1" vertex="1" parent="1">
          <mxGeometry x="300" y="110" width="180" height="40" as="geometry" />
        </mxCell>
        <mxCell id="Fx9q14CJgmkUAAxT83G9-17" value="" style="rounded=1;whiteSpace=wrap;html=1;fillColor=none;strokeColor=#1A1A1A;" vertex="1" parent="1">
          <mxGeometry x="560" y="160" width="180" height="370" as="geometry" />
        </mxCell>
        <mxCell id="Fx9q14CJgmkUAAxT83G9-18" value="crm_sales_details" style="rounded=1;whiteSpace=wrap;html=1;fillColor=#f5f5f5;strokeColor=#666666;fontColor=#333333;" vertex="1" parent="1">
          <mxGeometry x="590" y="180" width="120" height="40" as="geometry" />
        </mxCell>
        <mxCell id="Fx9q14CJgmkUAAxT83G9-19" value="crm_cust_info" style="rounded=1;whiteSpace=wrap;html=1;fillColor=#f5f5f5;strokeColor=#666666;fontColor=#333333;" vertex="1" parent="1">
          <mxGeometry x="590" y="230" width="120" height="40" as="geometry" />
        </mxCell>
        <mxCell id="Fx9q14CJgmkUAAxT83G9-20" value="crm_prod_info" style="rounded=1;whiteSpace=wrap;html=1;fillColor=#f5f5f5;strokeColor=#666666;fontColor=#333333;" vertex="1" parent="1">
          <mxGeometry x="590" y="280" width="120" height="40" as="geometry" />
        </mxCell>
        <mxCell id="Fx9q14CJgmkUAAxT83G9-21" value="erp_cust_az12" style="rounded=1;whiteSpace=wrap;html=1;fillColor=#f5f5f5;strokeColor=#666666;fontColor=#333333;" vertex="1" parent="1">
          <mxGeometry x="590" y="360" width="120" height="40" as="geometry" />
        </mxCell>
        <mxCell id="Fx9q14CJgmkUAAxT83G9-22" value="erp_loc_a101" style="rounded=1;whiteSpace=wrap;html=1;fillColor=#f5f5f5;strokeColor=#666666;fontColor=#333333;" vertex="1" parent="1">
          <mxGeometry x="590" y="410" width="120" height="40" as="geometry" />
        </mxCell>
        <mxCell id="Fx9q14CJgmkUAAxT83G9-23" value="erp_px_cat_g1v2" style="rounded=1;whiteSpace=wrap;html=1;fillColor=#f5f5f5;strokeColor=#666666;fontColor=#333333;" vertex="1" parent="1">
          <mxGeometry x="590" y="460" width="120" height="40" as="geometry" />
        </mxCell>
        <mxCell id="Fx9q14CJgmkUAAxT83G9-24" value="SILVER LAYER" style="rounded=1;whiteSpace=wrap;html=1;fillColor=#f5f5f5;strokeColor=#666666;fontStyle=1;fontColor=#333333;" vertex="1" parent="1">
          <mxGeometry x="560" y="110" width="180" height="40" as="geometry" />
        </mxCell>
        <mxCell id="Fx9q14CJgmkUAAxT83G9-25" value="" style="rounded=1;whiteSpace=wrap;html=1;fillColor=none;strokeColor=#FF8F42;" vertex="1" parent="1">
          <mxGeometry x="830" y="160" width="180" height="370" as="geometry" />
        </mxCell>
        <mxCell id="Fx9q14CJgmkUAAxT83G9-26" value="fact_sales" style="rounded=1;whiteSpace=wrap;html=1;fillColor=#fff2cc;strokeColor=#d6b656;" vertex="1" parent="1">
          <mxGeometry x="860" y="230" width="120" height="40" as="geometry" />
        </mxCell>
        <mxCell id="Fx9q14CJgmkUAAxT83G9-27" value="dim_customers" style="rounded=1;whiteSpace=wrap;html=1;fillColor=#fff2cc;strokeColor=#d6b656;" vertex="1" parent="1">
          <mxGeometry x="860" y="320" width="120" height="40" as="geometry" />
        </mxCell>
        <mxCell id="Fx9q14CJgmkUAAxT83G9-28" value="dim_products" style="rounded=1;whiteSpace=wrap;html=1;fillColor=#fff2cc;strokeColor=#d6b656;" vertex="1" parent="1">
          <mxGeometry x="860" y="410" width="120" height="40" as="geometry" />
        </mxCell>
        <mxCell id="Fx9q14CJgmkUAAxT83G9-32" value="GOLD LAYER" style="rounded=1;whiteSpace=wrap;html=1;fillColor=#fff2cc;strokeColor=#d6b656;fontStyle=1" vertex="1" parent="1">
          <mxGeometry x="830" y="110" width="180" height="40" as="geometry" />
        </mxCell>
        <mxCell id="Fx9q14CJgmkUAAxT83G9-34" value="" style="endArrow=classic;html=1;rounded=0;exitX=1.023;exitY=0.53;exitDx=0;exitDy=0;exitPerimeter=0;" edge="1" parent="1" source="Fx9q14CJgmkUAAxT83G9-5" target="Fx9q14CJgmkUAAxT83G9-11">
          <mxGeometry width="50" height="50" relative="1" as="geometry">
            <mxPoint x="160" y="250" as="sourcePoint" />
            <mxPoint x="210" y="210" as="targetPoint" />
          </mxGeometry>
        </mxCell>
        <mxCell id="Fx9q14CJgmkUAAxT83G9-35" value="" style="endArrow=classic;html=1;rounded=0;exitX=1.023;exitY=0.53;exitDx=0;exitDy=0;exitPerimeter=0;" edge="1" parent="1">
          <mxGeometry width="50" height="50" relative="1" as="geometry">
            <mxPoint x="155.29" y="430.5" as="sourcePoint" />
            <mxPoint x="329.29" y="429.5" as="targetPoint" />
          </mxGeometry>
        </mxCell>
        <mxCell id="Fx9q14CJgmkUAAxT83G9-36" value="" style="endArrow=classic;html=1;rounded=0;" edge="1" parent="1">
          <mxGeometry width="50" height="50" relative="1" as="geometry">
            <mxPoint x="240" y="200" as="sourcePoint" />
            <mxPoint x="330" y="200" as="targetPoint" />
          </mxGeometry>
        </mxCell>
        <mxCell id="Fx9q14CJgmkUAAxT83G9-38" value="" style="endArrow=classic;html=1;rounded=0;" edge="1" parent="1">
          <mxGeometry width="50" height="50" relative="1" as="geometry">
            <mxPoint x="240" y="299.5" as="sourcePoint" />
            <mxPoint x="330" y="299.5" as="targetPoint" />
          </mxGeometry>
        </mxCell>
        <mxCell id="Fx9q14CJgmkUAAxT83G9-39" value="" style="endArrow=classic;html=1;rounded=0;" edge="1" parent="1">
          <mxGeometry width="50" height="50" relative="1" as="geometry">
            <mxPoint x="240" y="379.5" as="sourcePoint" />
            <mxPoint x="330" y="379.5" as="targetPoint" />
          </mxGeometry>
        </mxCell>
        <mxCell id="Fx9q14CJgmkUAAxT83G9-40" value="" style="endArrow=classic;html=1;rounded=0;" edge="1" parent="1">
          <mxGeometry width="50" height="50" relative="1" as="geometry">
            <mxPoint x="240" y="479" as="sourcePoint" />
            <mxPoint x="330" y="479" as="targetPoint" />
          </mxGeometry>
        </mxCell>
        <mxCell id="Fx9q14CJgmkUAAxT83G9-41" value="" style="endArrow=none;html=1;rounded=0;" edge="1" parent="1">
          <mxGeometry width="50" height="50" relative="1" as="geometry">
            <mxPoint x="240" y="480" as="sourcePoint" />
            <mxPoint x="240" y="380" as="targetPoint" />
          </mxGeometry>
        </mxCell>
        <mxCell id="Fx9q14CJgmkUAAxT83G9-42" value="" style="endArrow=none;html=1;rounded=0;" edge="1" parent="1">
          <mxGeometry width="50" height="50" relative="1" as="geometry">
            <mxPoint x="240" y="300" as="sourcePoint" />
            <mxPoint x="240" y="200" as="targetPoint" />
          </mxGeometry>
        </mxCell>
        <mxCell id="Fx9q14CJgmkUAAxT83G9-43" value="" style="endArrow=classic;html=1;rounded=0;exitX=1;exitY=0.5;exitDx=0;exitDy=0;" edge="1" parent="1" source="Fx9q14CJgmkUAAxT83G9-10">
          <mxGeometry width="50" height="50" relative="1" as="geometry">
            <mxPoint x="500" y="200" as="sourcePoint" />
            <mxPoint x="590" y="200" as="targetPoint" />
          </mxGeometry>
        </mxCell>
        <mxCell id="Fx9q14CJgmkUAAxT83G9-44" value="" style="endArrow=classic;html=1;rounded=0;exitX=1;exitY=0.5;exitDx=0;exitDy=0;" edge="1" parent="1" source="Fx9q14CJgmkUAAxT83G9-12">
          <mxGeometry width="50" height="50" relative="1" as="geometry">
            <mxPoint x="500" y="299.5" as="sourcePoint" />
            <mxPoint x="590" y="299.5" as="targetPoint" />
          </mxGeometry>
        </mxCell>
        <mxCell id="Fx9q14CJgmkUAAxT83G9-45" value="" style="endArrow=classic;html=1;rounded=0;exitX=1;exitY=0.5;exitDx=0;exitDy=0;" edge="1" parent="1" source="Fx9q14CJgmkUAAxT83G9-13">
          <mxGeometry width="50" height="50" relative="1" as="geometry">
            <mxPoint x="500" y="379.5" as="sourcePoint" />
            <mxPoint x="590" y="379.5" as="targetPoint" />
          </mxGeometry>
        </mxCell>
        <mxCell id="Fx9q14CJgmkUAAxT83G9-46" value="" style="endArrow=classic;html=1;rounded=0;exitX=1;exitY=0.5;exitDx=0;exitDy=0;" edge="1" parent="1" source="Fx9q14CJgmkUAAxT83G9-15">
          <mxGeometry width="50" height="50" relative="1" as="geometry">
            <mxPoint x="500" y="479" as="sourcePoint" />
            <mxPoint x="590" y="479" as="targetPoint" />
          </mxGeometry>
        </mxCell>
        <mxCell id="Fx9q14CJgmkUAAxT83G9-47" value="" style="endArrow=classic;html=1;rounded=0;exitX=1;exitY=0.5;exitDx=0;exitDy=0;" edge="1" parent="1">
          <mxGeometry width="50" height="50" relative="1" as="geometry">
            <mxPoint x="450" y="249.5" as="sourcePoint" />
            <mxPoint x="590" y="249.5" as="targetPoint" />
          </mxGeometry>
        </mxCell>
        <mxCell id="Fx9q14CJgmkUAAxT83G9-48" value="" style="endArrow=classic;html=1;rounded=0;exitX=1;exitY=0.5;exitDx=0;exitDy=0;" edge="1" parent="1">
          <mxGeometry width="50" height="50" relative="1" as="geometry">
            <mxPoint x="450" y="429.5" as="sourcePoint" />
            <mxPoint x="590" y="429.5" as="targetPoint" />
          </mxGeometry>
        </mxCell>
        <mxCell id="Fx9q14CJgmkUAAxT83G9-49" value="" style="endArrow=classic;html=1;rounded=0;exitX=1;exitY=0.5;exitDx=0;exitDy=0;jumpStyle=gap;" edge="1" parent="1" source="Fx9q14CJgmkUAAxT83G9-18">
          <mxGeometry width="50" height="50" relative="1" as="geometry">
            <mxPoint x="810" y="300" as="sourcePoint" />
            <mxPoint x="860" y="250" as="targetPoint" />
          </mxGeometry>
        </mxCell>
        <mxCell id="Fx9q14CJgmkUAAxT83G9-50" value="" style="endArrow=classic;html=1;rounded=0;entryX=0;entryY=0.5;entryDx=0;entryDy=0;jumpStyle=gap;" edge="1" parent="1" target="Fx9q14CJgmkUAAxT83G9-27">
          <mxGeometry width="50" height="50" relative="1" as="geometry">
            <mxPoint x="710" y="250" as="sourcePoint" />
            <mxPoint x="760" y="200" as="targetPoint" />
          </mxGeometry>
        </mxCell>
        <mxCell id="Fx9q14CJgmkUAAxT83G9-51" value="" style="endArrow=classic;html=1;rounded=0;entryX=0;entryY=0.5;entryDx=0;entryDy=0;jumpStyle=gap;" edge="1" parent="1" target="Fx9q14CJgmkUAAxT83G9-27">
          <mxGeometry width="50" height="50" relative="1" as="geometry">
            <mxPoint x="710" y="380" as="sourcePoint" />
            <mxPoint x="760" y="330" as="targetPoint" />
          </mxGeometry>
        </mxCell>
        <mxCell id="Fx9q14CJgmkUAAxT83G9-52" value="" style="endArrow=classic;html=1;rounded=0;entryX=0;entryY=0.5;entryDx=0;entryDy=0;jumpStyle=gap;" edge="1" parent="1" target="Fx9q14CJgmkUAAxT83G9-27">
          <mxGeometry width="50" height="50" relative="1" as="geometry">
            <mxPoint x="710" y="430" as="sourcePoint" />
            <mxPoint x="760" y="380" as="targetPoint" />
          </mxGeometry>
        </mxCell>
        <mxCell id="Fx9q14CJgmkUAAxT83G9-53" value="" style="endArrow=classic;html=1;rounded=0;entryX=0;entryY=0.5;entryDx=0;entryDy=0;jumpStyle=gap;" edge="1" parent="1" target="Fx9q14CJgmkUAAxT83G9-28">
          <mxGeometry width="50" height="50" relative="1" as="geometry">
            <mxPoint x="710" y="480" as="sourcePoint" />
            <mxPoint x="760" y="430" as="targetPoint" />
          </mxGeometry>
        </mxCell>
        <mxCell id="Fx9q14CJgmkUAAxT83G9-54" value="" style="endArrow=classic;html=1;rounded=0;entryX=0;entryY=0.5;entryDx=0;entryDy=0;jumpStyle=gap;" edge="1" parent="1" target="Fx9q14CJgmkUAAxT83G9-28">
          <mxGeometry width="50" height="50" relative="1" as="geometry">
            <mxPoint x="710" y="300" as="sourcePoint" />
            <mxPoint x="760" y="250" as="targetPoint" />
          </mxGeometry>
        </mxCell>
      </root>
    </mxGraphModel>
  </diagram>
</mxfile>
